/* XPM */
static char * z_xpm[] = {
"16 16 2 1",
" 	c #FFFFFE",
".	c #000000",
"  ............  ",
"  ............  ",
"  ............  ",
"        ...     ",
"        ...     ",
"        ...     ",
"     ...        ",
"     ...        ",
"     ...        ",
"  ...           ",
"  ...           ",
"  ...           ",
"  ...           ",
"  ............  ",
"  ............  ",
"  ............  "};
