/* XPM */
static char * h_xpm[] = {
"16 16 2 1",
" 	c #FFFFFE",
".	c #000000",
"  ...      ...  ",
"  ...      ...  ",
"  ...      ...  ",
"  ...      ...  ",
"  ...      ...  ",
"  ...      ...  ",
"  ............  ",
"  ............  ",
"  ............  ",
"  ...      ...  ",
"  ...      ...  ",
"  ...      ...  ",
"  ...      ...  ",
"  ...      ...  ",
"  ...      ...  ",
"  ...      ...  "};
