/* XPM */
static char * l_xpm[] = {
"16 16 2 1",
" 	c #FFFFFE",
".	c #000000",
"  ...           ",
"  ...           ",
"  ...           ",
"  ...           ",
"  ...           ",
"  ...           ",
"  ...           ",
"  ...           ",
"  ...           ",
"  ...           ",
"  ...           ",
"  ...           ",
"  ...           ",
"  ............  ",
"  ............  ",
"  ............  "};
