/* XPM */
static char * brushCursor_xpm[] = {
"31 30 5 1",
" 	c #FFFFFE",
".	c #000000",
"+	c #795548",
"@	c #3F51B5",
"#	c #E91E63",
"..                             ",
".+.....                        ",
".+++++..                       ",
".+++++++...                    ",
".++++++++++.                   ",
".++++++++++.                   ",
" .+++++++++..                  ",
" .+++++++..@..                 ",
" .+++++++.@@@..                ",
"  .++++..@@@@@..               ",
"   .....@@@@@@@..              ",
"       ..@@@@@...              ",
"        ..@@@.##..             ",
"         ..@.####..            ",
"          ...#####..           ",
"            ..#####..          ",
"             ..#####..         ",
"              ..#####..        ",
"               ..#####..       ",
"                ..#####..      ",
"                 ..#####..     ",
"                  ..#####..    ",
"                   ..#####..   ",
"                    ..#####..  ",
"                     ..#####.. ",
"                      ..#####..",
"                       ..#####.",
"                        ..###..",
"                         ..#.. ",
"                          ...  "};
