/* XPM */
static char * brushMinus_xpm[] = {
"50 50 2 1",
" 	c #FFFFFF",
".	c #000000",
"                                                  ",
" ..............................................   ",
" .                                            .   ",
" .                                            .   ",
" .                                            .   ",
" .   ..                                       .   ",
" .   ...                                      .   ",
" .    ...                                     .   ",
" .     ...                                    .   ",
" .      ...                                   .   ",
" .       ...                                  .   ",
" .        ...                                 .   ",
" .         ...                                .   ",
" .          ...                               .   ",
" .           ...                              .   ",
" .            ...                             .   ",
" .             ...                            .   ",
" .              ...                           .   ",
" .               ...                          .   ",
" .                ...                         .   ",
" .                 ...    .                   .   ",
" .                  ...  ...                  .   ",
" .                   ... ...                  .   ",
" .                    ......                  .   ",
" .                     ......                 .   ",
" .                   ........                 .   ",
" .                  .........                 .   ",
" .                   .........                .   ",
" .                      ......                .   ",
" .                         ...                .   ",
" .                                            .   ",
" .                             ...  ...  ...  ... ",
" .                             .                . ",
" .                             .                . ",
" .                                                ",
" .                                                ",
" .                             .                . ",
" .                             .                . ",
" .                             .                . ",
" .                                                ",
" .                                                ",
" .                             .                . ",
" .                             .                . ",
" .                             .                . ",
" .                                                ",
" .                                                ",
" ...............................                . ",
"                               .                . ",
"                               ...  ...  ...  ... ",
"                                                  "};
