/* XPM */
static char * nine_xpm[] = {
"15 15 2 1",
" 	c #FFFFFE",
".	c #000000",
"    ......     ",
"    ......     ",
"    ......     ",
" ...      ...  ",
" ...      ...  ",
" ...      ...  ",
"    .........  ",
"    .........  ",
"    .........  ",
"          ...  ",
"          ...  ",
"          ...  ",
"       ...     ",
"       ...     ",
"       ...     "};
